<svg width="18" height="19" viewBox="0 0 18 19" fill="none" xmlns="http://www.w3.org/2000/svg">
<path fill-rule="evenodd" clip-rule="evenodd" d="M0.292894 0.792893C0.683418 0.402369 1.31658 0.402369 1.70711 0.792893L9 8.08579L16.2929 0.792897C16.6834 0.402373 17.3166 0.402373 17.7071 0.792897C18.0976 1.18342 18.0976 1.81659 17.7071 2.20711L10.4142 9.5L17.7071 16.7929C18.0976 17.1834 18.0976 17.8166 17.7071 18.2071C17.3166 18.5976 16.6834 18.5976 16.2929 18.2071L9 10.9142L1.70711 18.2071C1.31658 18.5976 0.683417 18.5976 0.292893 18.2071C-0.0976311 17.8166 -0.097631 17.1834 0.292893 16.7929L7.58579 9.5L0.292894 2.20711C-0.0976302 1.81658 -0.0976302 1.18342 0.292894 0.792893Z" fill="black"/>
</svg>
