<svg width="101" height="100" viewBox="0 0 101 100" fill="none" xmlns="http://www.w3.org/2000/svg">
<path d="M99.1001 48.7291C90.911 48.4818 82.7812 47.7697 74.6119 47.2258C68.9547 46.8499 63.3272 46.5928 57.6799 46.4741C59.4997 44.4367 61.27 42.3598 63.0206 40.2235C66.5811 35.8619 69.9932 31.4212 73.8306 27.2871C74.6416 26.4069 73.3954 25.1706 72.5152 25.9717C68.4602 29.6904 64.1382 33.0135 59.8854 36.485C57.5711 38.374 55.326 40.3125 53.1304 42.3004C52.9721 36.663 52.6853 31.0355 52.3095 25.3882C51.7556 17.2188 51.0534 9.08908 50.8556 0.899979C50.8259 -0.296738 49.0358 -0.296738 49.0061 0.899979C48.7589 9.08908 48.0468 17.2188 47.5028 25.3882C47.127 31.0058 46.8797 36.5938 46.7512 42.1916C46.7116 42.162 46.6819 42.1224 46.6424 42.0927C44.5456 40.4114 42.2709 38.9773 40.2731 37.1872C36.0994 33.4487 31.9653 29.6607 27.7422 25.9816C26.5751 24.9629 24.9828 26.5354 26.041 27.6827C29.7202 31.7179 33.4587 35.6839 37.1972 39.6696C39.0368 41.6378 40.5104 43.8532 42.2017 45.94C42.3995 46.1873 42.6171 46.4148 42.8149 46.6521C37.0983 47.028 31.4114 47.6807 25.6652 47.8884C17.5058 48.1752 9.33647 48.4818 1.17704 48.8873C-0.365838 48.9664 -0.385618 51.261 1.17704 51.3005C9.33647 51.5181 17.4959 51.6566 25.6652 51.8049C31.4114 51.9137 37.1181 52.4874 42.8445 52.8038C42.6863 52.9918 42.5182 53.1698 42.3698 53.3577C40.6885 55.4544 39.2544 57.7292 37.4642 59.727C33.7257 63.9007 29.9378 68.0348 26.2586 72.2579C25.2399 73.4249 26.8125 75.0173 27.9598 73.959C31.995 70.2799 35.9609 66.5414 39.9467 62.8029C41.9148 60.9633 44.1303 59.4896 46.2171 57.7984C46.4643 57.6006 46.6918 57.383 46.9391 57.1753C47.3149 62.9018 47.9776 68.5886 48.1754 74.3349C48.4622 82.4943 48.7688 90.6636 49.1743 98.823C49.2534 100.366 51.5479 100.386 51.5875 98.823C51.8051 90.6636 51.9435 82.5042 52.0919 74.3349C52.2007 68.5392 52.7842 62.7831 53.1007 57.0072C55.2864 58.9655 57.5018 60.8743 59.7964 62.7534C64.158 66.3139 68.5987 69.726 72.7328 73.5634C73.613 74.3744 74.8493 73.1282 74.0482 72.248C70.3295 68.193 67.0063 63.871 63.5349 59.6182C61.6359 57.294 59.7074 55.0489 57.7194 52.8533C63.3568 52.6951 68.9844 52.4082 74.6416 52.0324C82.8109 51.4786 90.9407 50.7764 99.1298 50.5785C100.326 50.5489 100.326 48.7587 99.1298 48.7291H99.1001Z" fill="#BE9658"/>
</svg>
