<svg width="32" height="20" viewBox="0 0 32 20" fill="none" xmlns="http://www.w3.org/2000/svg">
<path fill-rule="evenodd" clip-rule="evenodd" d="M30.9247 2.13508C31.1462 1.39673 30.9247 0.879883 29.891 0.879883H26.4454C25.5593 0.879883 25.1655 1.34751 24.944 1.86435C24.944 1.86435 23.1966 6.14679 20.7108 8.90331C19.8986 9.71549 19.5541 9.96161 19.1111 9.96161C18.8896 9.96161 18.5696 9.71549 18.5696 8.97714V2.13508C18.5696 1.24906 18.3235 0.879883 17.5851 0.879883H12.1706C11.6291 0.879883 11.2845 1.29828 11.2845 1.66746C11.2845 2.50426 12.5151 2.70115 12.6628 5.01465V10.0847C12.6628 11.1922 12.4659 11.3891 12.0229 11.3891C10.8661 11.3891 8.01118 7.10665 6.33758 2.18431C5.99301 1.27367 5.67306 0.879883 4.78704 0.879883H1.3414C0.356928 0.879883 0.160034 1.34751 0.160034 1.86435C0.160034 2.77499 1.31679 7.30354 5.59923 13.2842C8.45419 17.3697 12.4659 19.5848 16.1084 19.5848C18.2989 19.5848 18.5696 19.0926 18.5696 18.2558V15.1547C18.5696 14.1702 18.7665 13.9733 19.4802 13.9733C19.9971 13.9733 20.8585 14.2194 22.9013 16.1884C25.2394 18.5265 25.6332 19.5848 26.9376 19.5848H30.3832C31.3677 19.5848 31.8599 19.0926 31.5646 18.1327C31.2446 17.1728 30.1371 15.77 28.6604 14.0964C27.8482 13.1365 26.6423 12.1274 26.2977 11.6106C25.7808 10.9461 25.9285 10.6507 26.2977 10.0847C26.2977 10.0601 30.5063 4.15324 30.9247 2.13508Z" fill="white"/>
</svg>
