<svg width="151" height="209" viewBox="0 0 151 209" fill="none" xmlns="http://www.w3.org/2000/svg">
<path d="M149.09 29.956C136.607 30.6736 124.53 32.3897 113.076 35.1531C101.634 37.9284 90.7916 41.6755 80.7958 46.3617L77.0913 48.1671L75.228 49.0582L73.4593 50.0441L69.9258 52.0229C68.7644 52.6974 67.5239 53.3029 66.4525 54.058C64.25 55.5147 62.0035 56.9382 59.8294 58.4204L53.5862 63.0978C45.6187 69.6005 38.63 76.8627 33.1956 84.9202C32.5227 85.9293 31.7545 86.8993 31.1582 87.9426L29.3882 91.0853L27.6146 94.233L26.079 97.4744C24.1399 101.838 22.6168 106.359 21.577 111.006C20.5265 115.65 19.986 120.429 20.0835 125.287C20.1624 130.14 20.8159 135.071 22.2384 139.978C23.6466 144.882 25.7124 149.769 28.5683 154.474C31.4619 159.161 35.1027 163.673 39.4967 167.767C48.1652 175.992 59.5636 182.754 71.9801 186.556L71.9899 186.559C72.4819 186.709 72.7831 187.121 72.6621 187.476C72.5411 187.832 72.0431 187.999 71.5511 187.848C71.5348 187.843 71.5164 187.837 71.5015 187.832C58.8998 183.395 47.6994 176.368 39.0543 168.015C36.8693 165.936 34.892 163.749 33.0112 161.526C32.1332 160.39 31.1826 159.279 30.3955 158.11L29.1703 156.374L28.0539 154.605C25.166 149.871 22.8966 144.976 21.3788 140.025C19.8652 135.076 18.9591 130.088 18.6597 125.146C18.3784 120.206 18.6329 115.31 19.3611 110.506C20.1015 105.704 21.3408 101.001 23.0163 96.4325L24.3591 93.0332L25.9466 89.7209L27.5377 86.4036C28.076 85.3002 28.7873 84.2705 29.4051 83.1996C34.434 74.6729 40.9622 66.7469 48.9499 59.7955L55.1697 54.7444C57.3723 53.1601 59.6624 51.6438 61.9074 50.0897C66.5922 47.1535 71.3998 44.3033 76.6356 41.8898C86.9966 36.9628 98.3863 33.1095 110.506 30.6045C122.608 28.0873 135.427 26.8532 148.483 27.2476C149.458 27.2772 150.344 27.9072 150.461 28.6556C150.569 29.352 149.975 29.905 149.105 29.9542L149.09 29.956Z" fill="#743335"/>
<path d="M93.1318 190.908C82.7494 191.782 69.7117 194.153 61.3786 197.697L68.9768 186.359L64.4023 172.732C71.5242 179.186 83.4189 186.253 93.1318 190.908Z" fill="#743335"/>
</svg>
