<svg width="239" height="126" viewBox="0 0 239 126" fill="none" xmlns="http://www.w3.org/2000/svg">
<path d="M162.105 52.6327C161.549 50.5639 161.617 48.3787 162.3 46.3537C162.983 44.3287 164.251 42.5548 165.944 41.2563C167.636 39.9578 169.677 39.1931 171.809 39.059C173.94 38.9249 176.065 39.4273 177.917 40.5027C179.768 41.5781 181.261 43.1783 182.209 45.1007C183.156 47.0231 183.514 49.1814 183.238 51.3026C182.961 53.4238 182.063 55.4126 180.657 57.0175C179.25 58.6224 177.398 59.7712 175.336 60.3186C172.572 61.0522 169.625 60.6547 167.144 59.2135C164.663 57.7722 162.851 55.4052 162.105 52.6327ZM181.199 47.5421C180.735 45.8171 179.772 44.2666 178.431 43.0869C177.089 41.9072 175.431 41.1514 173.664 40.9151C171.898 40.6789 170.104 40.9728 168.509 41.7597C166.914 42.5466 165.59 43.7911 164.704 45.3356C163.818 46.8801 163.411 48.6552 163.534 50.436C163.656 52.2169 164.304 53.9234 165.393 55.3396C166.483 56.7557 167.966 57.8178 169.655 58.3913C171.343 58.9648 173.162 59.024 174.88 58.5613C177.133 57.9078 179.04 56.3999 180.196 54.3572C181.353 52.3144 181.669 49.8973 181.076 47.6179L181.199 47.5421Z" fill="#B08450"/>
<path d="M66.5588 81.706C66.5065 81.5325 66.5123 81.3468 66.5751 81.1773C66.638 81.0078 66.7546 80.8639 66.907 80.7674L76.315 74.2491L68.8505 65.4927C68.7265 65.3497 68.6504 65.1715 68.6328 64.9832C68.6153 64.7948 68.6572 64.6061 68.7527 64.4434C68.8482 64.2808 68.9925 64.1525 69.165 64.0769C69.3376 64.0012 69.5298 63.9818 69.7143 64.0216L80.9976 66.1154L81.8647 54.6964C81.8765 54.5051 81.9465 54.3222 82.0654 54.1725C82.1842 54.0227 82.3462 53.9132 82.5294 53.8588C82.7086 53.8172 82.8964 53.8316 83.0676 53.9002C83.2387 53.9687 83.385 54.0882 83.4866 54.2424L90.0309 63.6974L98.7379 56.254C98.8801 56.1304 99.0576 56.0548 99.2455 56.0381C99.4333 56.0213 99.6219 56.0641 99.7846 56.1605C99.9473 56.2569 100.076 56.4019 100.152 56.5752C100.228 56.7484 100.249 56.941 100.21 57.1258L98.1485 68.3932L109.567 69.3407C109.74 69.3718 109.901 69.4513 110.032 69.57C110.163 69.6888 110.258 69.8419 110.306 70.0118C110.354 70.1818 110.353 70.3617 110.304 70.5308C110.254 70.6999 110.158 70.8515 110.026 70.968L100.618 77.4863L108.064 86.2119C108.187 86.3545 108.262 86.5318 108.28 86.7191C108.297 86.9063 108.256 87.0941 108.162 87.2562C108.086 87.4259 107.961 87.5688 107.803 87.6667C107.645 87.7646 107.462 87.813 107.276 87.8059L96.0235 85.6932L95.1258 97.1311C95.1154 97.3154 95.0463 97.4913 94.9288 97.6331C94.8112 97.7748 94.6514 97.875 94.4725 97.919C94.2971 97.9738 94.1085 97.971 93.9342 97.9109C93.76 97.8509 93.6092 97.7367 93.5039 97.585L86.9596 88.1301L78.2832 95.5545C78.1391 95.6723 77.963 95.7443 77.7774 95.761C77.5918 95.7777 77.4052 95.7385 77.2415 95.6484C77.0719 95.5714 76.9288 95.4457 76.8305 95.2872C76.7321 95.1287 76.683 94.9446 76.6893 94.7585L78.7314 83.4605L67.3324 82.5436C67.1273 82.514 66.9385 82.4146 66.7976 82.262C66.6566 82.1094 66.5723 81.9131 66.5588 81.706ZM78.5621 74.2572C78.6006 74.3773 78.607 74.5051 78.5808 74.6282C78.5356 74.8741 78.4008 75.0941 78.2024 75.2455L70.0507 80.8567L79.9542 81.6815C80.0769 81.6867 80.197 81.7193 80.3058 81.7767C80.4146 81.8342 80.5094 81.9151 80.5834 82.0136C80.6657 82.1077 80.7247 82.2199 80.7558 82.341C80.7868 82.462 80.7889 82.5886 80.7619 82.7104L78.9201 92.354L86.4279 85.9099C86.5274 85.8268 86.6437 85.7664 86.7688 85.7328C86.894 85.6991 87.025 85.693 87.153 85.7149C87.2772 85.7301 87.3968 85.772 87.5034 85.8379C87.6101 85.9038 87.7013 85.9921 87.7707 86.0967L93.4044 94.289L94.186 84.3683C94.1907 84.2453 94.2227 84.1251 94.2795 84.0163C94.3364 83.9075 94.4168 83.8128 94.5148 83.7391C94.7251 83.5891 94.9823 83.52 95.2399 83.5442L104.871 85.4304L98.409 77.8798C98.3257 77.7798 98.2649 77.663 98.2308 77.5374C98.1967 77.4118 98.1901 77.2805 98.2114 77.1524C98.226 77.028 98.2674 76.9084 98.3327 76.8018C98.398 76.6952 98.4857 76.6042 98.5898 76.535L106.741 70.9238L96.9407 70.3328C96.818 70.3275 96.6979 70.295 96.5891 70.2376C96.4803 70.1801 96.3855 70.0992 96.3115 70.0006C96.161 69.7893 96.0909 69.5312 96.114 69.2732L97.9864 59.6105L90.448 66.0737C90.3544 66.1558 90.2428 66.2146 90.1221 66.2452C90.0014 66.2757 89.8751 66.2773 89.7534 66.2498C89.626 66.2388 89.5024 66.2007 89.3906 66.1382C89.2789 66.0756 89.1816 65.99 89.1053 65.887L83.4715 57.6946L82.6899 67.6154C82.6852 67.7383 82.6532 67.8585 82.5964 67.9673C82.5395 68.0761 82.4591 68.1708 82.3611 68.2444C82.2627 68.3182 82.1508 68.3717 82.0316 68.4019C81.9124 68.4321 81.7883 68.4384 81.6665 68.4205L71.8633 66.5983L78.3447 74.1796L78.5621 74.2572Z" fill="#B08450"/>
<path d="M141.587 11.0464C141.549 10.8668 141.565 10.6803 141.633 10.5101C141.7 10.3399 141.816 10.1935 141.965 10.0888L144.836 8.30716L142.638 5.71866C142.514 5.58694 142.437 5.41859 142.417 5.2391C142.397 5.05961 142.436 4.87877 142.528 4.72407C142.604 4.55443 142.729 4.41153 142.887 4.31364C143.045 4.21574 143.228 4.16727 143.414 4.1744L146.752 4.7809L147.003 1.43697C147.006 1.24976 147.07 1.0688 147.184 0.921211C147.298 0.773616 147.458 0.667314 147.638 0.618329C147.819 0.567844 148.012 0.575899 148.19 0.641326C148.367 0.706754 148.519 0.826296 148.625 0.982993L150.568 3.77269L153.111 1.59934C153.25 1.47163 153.428 1.39331 153.616 1.37635C153.804 1.35939 153.993 1.40476 154.153 1.50549C154.32 1.57516 154.462 1.69552 154.557 1.84967C154.653 2.00381 154.698 2.18396 154.686 2.3647L154.095 5.70679L157.433 5.97301C157.607 6.00411 157.768 6.08363 157.899 6.20235C158.03 6.32106 158.124 6.47416 158.172 6.64412C158.22 6.81408 158.22 6.99396 158.17 7.16311C158.121 7.33225 158.025 7.48377 157.893 7.60029L155.117 9.53538L157.297 12.0932C157.425 12.233 157.504 12.4109 157.521 12.5995C157.539 12.7881 157.495 12.9771 157.395 13.1374C157.326 13.3047 157.206 13.4458 157.053 13.5411C156.9 13.6363 156.72 13.6807 156.54 13.6681L153.202 13.0616L152.95 16.4056C152.936 16.5956 152.863 16.776 152.74 16.921C152.617 17.066 152.451 17.168 152.266 17.2124C152.094 17.2641 151.908 17.2576 151.739 17.1939C151.569 17.1301 151.425 17.0127 151.328 16.8595L149.538 13.975L146.964 16.1674C146.829 16.2905 146.655 16.3646 146.472 16.3782C146.289 16.3917 146.107 16.3439 145.953 16.2423C145.786 16.1726 145.645 16.0522 145.549 15.8981C145.453 15.744 145.408 15.5638 145.42 15.3831L146.011 12.041L142.673 11.7747C142.554 11.8015 142.431 11.8036 142.311 11.781C142.191 11.7585 142.077 11.7117 141.975 11.6436C141.873 11.5755 141.786 11.4874 141.72 11.3848C141.653 11.2821 141.608 11.167 141.587 11.0464ZM146.95 8.10044L147.122 8.3766C147.077 8.62258 146.942 8.84261 146.743 8.99396L145.186 9.96062L147.009 10.1041C147.264 10.1347 147.497 10.2651 147.657 10.4669C147.74 10.561 147.799 10.6731 147.83 10.7942C147.861 10.9153 147.863 11.0419 147.836 11.1637L147.491 12.9931L148.915 11.8117C148.998 11.7187 149.105 11.6503 149.224 11.6139C149.343 11.5775 149.47 11.5744 149.591 11.605C149.718 11.616 149.842 11.654 149.953 11.7166C150.065 11.7791 150.162 11.8648 150.239 11.9678L151.21 13.5328L151.345 11.706C151.375 11.4506 151.504 11.2176 151.705 11.058C151.798 10.9759 151.91 10.9172 152.031 10.8866C152.151 10.856 152.278 10.8544 152.399 10.882L154.226 11.2358L153.011 9.82243C152.928 9.7224 152.867 9.60559 152.833 9.48003C152.799 9.35447 152.792 9.22309 152.813 9.09496C152.859 8.84898 152.993 8.629 153.192 8.47764L154.749 7.51098L152.907 7.33682C152.783 7.3372 152.661 7.30713 152.551 7.24922C152.442 7.19131 152.348 7.10735 152.278 7.00471C152.195 6.91061 152.136 6.79844 152.105 6.67737C152.074 6.5563 152.072 6.42974 152.099 6.30795L152.444 4.47847L151.02 5.65992C150.821 5.81937 150.569 5.89965 150.314 5.88555C150.072 5.83049 149.854 5.69619 149.696 5.50383L148.725 3.9388L148.559 5.78451C148.554 5.90743 148.522 6.02765 148.466 6.13645C148.409 6.24526 148.328 6.33993 148.23 6.4136C148.132 6.4873 148.02 6.5408 147.901 6.571C147.782 6.6012 147.658 6.60748 147.536 6.58956L145.709 6.23582L146.894 7.66811C146.954 7.80371 146.974 7.95405 146.95 8.10044Z" fill="#B08450"/>
<path d="M12.2419 35.4209C11.9305 34.333 11.7335 33.2159 11.6542 32.0879C11.6487 31.8836 11.7099 31.6834 11.8285 31.5177C11.9472 31.352 12.1167 31.23 12.3114 31.17C12.5171 31.1186 12.7344 31.1388 12.9277 31.2273C13.1211 31.3159 13.2789 31.4675 13.3754 31.6574C14.4259 33.7725 16.0288 35.5645 18.013 36.8417C19.9972 38.1189 22.2881 38.8335 24.641 38.9091C26.9939 38.9846 29.3204 38.4184 31.3721 37.2708C33.4237 36.1233 35.1234 34.4374 36.2895 32.3935C37.4557 30.3495 38.0446 28.0242 37.9932 25.6658C37.9419 23.3075 37.2522 21.0047 35.998 19.0035C34.7437 17.0023 32.972 15.3778 30.872 14.3035C28.772 13.2293 26.4226 12.7456 24.0748 12.9042C23.8669 12.9306 23.6564 12.8769 23.4859 12.7539C23.3153 12.6309 23.1974 12.448 23.156 12.2418C23.0992 12.0417 23.1132 11.8283 23.1955 11.6379C23.2777 11.4474 23.4232 11.2915 23.6073 11.1966C24.6117 10.708 25.6644 10.3254 26.7486 10.0549C30.6907 8.9966 34.8624 9.1346 38.7362 10.4515C42.61 11.7684 46.0121 14.205 48.5123 17.4533C51.0126 20.7016 52.4986 24.6158 52.7827 28.701C53.0669 32.7863 52.1363 36.8591 50.1086 40.4047C48.0809 43.9503 45.0471 46.8095 41.3908 48.6207C37.7346 50.432 33.6199 51.114 29.567 50.5806C25.5142 50.0472 21.7052 48.3223 18.6214 45.6239C15.5376 42.9256 13.3175 39.375 12.2419 35.4209ZM39.2876 22.0802C40.2368 25.2947 40.0733 28.7319 38.8238 31.8322C37.5743 34.9324 35.3124 37.513 32.4064 39.1537C29.5004 40.7944 26.1216 41.3986 22.8202 40.8678C19.5187 40.337 16.4892 38.7025 14.225 36.2305C15.4178 39.6518 17.5643 42.662 20.4096 44.9033C23.2548 47.1447 26.6791 48.5229 30.2753 48.8742C33.8715 49.2254 37.4883 48.535 40.696 46.8849C43.9036 45.2349 46.5672 42.6945 48.3699 39.5659C50.1727 36.4372 51.0389 32.8519 50.8655 29.2361C50.6922 25.6202 49.4866 22.126 47.3921 19.1686C45.2976 16.2112 42.4022 13.9151 39.0501 12.5533C35.6981 11.1915 32.0304 10.8211 28.483 11.4863C31.0682 12.1256 33.4371 13.4492 35.3414 15.3185C37.2457 17.1878 38.6153 19.5339 39.3067 22.1109L39.2876 22.0802Z" fill="#B08450"/>
<path d="M104.254 25.3305C105.675 24.9496 107.179 25 108.576 25.4751C109.972 25.9503 111.198 26.829 112.1 28.0002C113.001 29.1714 113.537 30.5825 113.639 32.0553C113.742 33.528 113.406 34.9965 112.675 36.2749C111.945 37.5533 110.851 38.5844 109.534 39.2379C108.216 39.8914 106.732 40.1381 105.271 39.9466C103.81 39.7552 102.436 39.1342 101.324 38.1623C100.211 37.1904 99.4099 35.911 99.0208 34.4859C98.7619 33.5379 98.692 32.5488 98.815 31.5753C98.938 30.6018 99.2515 29.6629 99.7376 28.8124C100.224 27.962 100.873 27.2167 101.648 26.6192C102.423 26.0217 103.308 25.5838 104.254 25.3305Z" fill="#B08450"/>
<path d="M34.637 95.0966C35.2983 94.9178 35.9888 94.8715 36.669 94.9602C37.3493 95.049 38.0061 95.271 38.6018 95.6138C39.1975 95.9565 39.7204 96.4132 40.1408 96.9577C40.5612 97.5023 40.8709 98.124 41.052 98.7875C41.2332 99.4509 41.2823 100.143 41.1966 100.824C41.1109 101.506 40.892 102.163 40.5525 102.758C40.213 103.354 39.7595 103.876 39.2179 104.295C38.6762 104.714 38.057 105.022 37.3957 105.201C36.7342 105.391 36.0411 105.448 35.3563 105.368C34.6716 105.288 34.0087 105.074 33.4061 104.736C32.8035 104.399 32.2731 103.946 31.8453 103.403C31.4175 102.86 31.1009 102.238 30.9138 101.572C30.729 100.9 30.6789 100.199 30.7664 99.5084C30.8539 98.818 31.0772 98.1524 31.4234 97.5502C31.7697 96.9479 32.232 96.4209 32.7836 95.9998C33.3352 95.5786 33.9652 95.2716 34.637 95.0966Z" fill="#B08450"/>
<path d="M143.64 93.8442C144.278 93.6727 144.953 93.6946 145.58 93.9069C146.207 94.1193 146.758 94.5126 147.163 95.0374C147.569 95.5622 147.811 96.1948 147.859 96.8557C147.906 97.5165 147.758 98.1759 147.432 98.7508C147.106 99.3256 146.617 99.7901 146.027 100.086C145.437 100.381 144.771 100.495 144.115 100.412C143.459 100.329 142.841 100.054 142.34 99.6202C141.838 99.1866 141.475 98.6146 141.297 97.976C141.178 97.5494 141.144 97.1037 141.197 96.6646C141.251 96.2255 141.39 95.8017 141.608 95.4176C141.826 95.0335 142.118 94.6968 142.467 94.4267C142.815 94.1567 143.214 93.9587 143.64 93.8442Z" fill="#B08450"/>
<path d="M232.974 76.9151C233.826 76.6906 234.726 76.7242 235.561 77.0118C236.396 77.2993 237.128 77.8279 237.665 78.5308C238.202 79.2337 238.521 80.0794 238.579 80.9612C238.638 81.8431 238.435 82.7215 237.996 83.4857C237.556 84.2498 236.9 84.8656 236.11 85.2551C235.321 85.6446 234.433 85.7904 233.558 85.6743C232.683 85.5581 231.862 85.1852 231.197 84.6024C230.531 84.0196 230.053 83.2532 229.82 82.3999C229.518 81.2507 229.679 80.0301 230.269 79.0032C230.86 77.9763 231.832 77.2259 232.974 76.9151Z" fill="#B08450"/>
<path d="M68.9801 23.5033L73.147 19.5149L74.5266 13.8984L78.5242 18.0906L84.1464 19.4471L79.9796 23.4355L78.619 29.0827L74.6214 24.8904L68.9801 23.5033Z" fill="#B08450"/>
<path d="M64.3277 122.831L66.6231 120.599L67.3666 117.502L69.6037 119.812L72.697 120.57L70.4016 122.802L69.6276 125.918L67.421 123.589L64.3277 122.831Z" fill="#B08450"/>
<path d="M0.900199 76.2497L3.29873 73.9112L4.07681 70.6656L6.42059 73.079L9.66268 73.8723L7.26412 76.2108L6.48604 79.4564L4.17284 77.024L0.900199 76.2497Z" fill="#B08450"/>
<path d="M191.876 83.6321L194.859 80.8035L195.84 76.7944L198.706 79.7763L202.692 80.7456L199.728 83.6049L198.747 87.614L195.912 84.6131L191.876 83.6321Z" fill="#B08450"/>
</svg>
