<svg width="230" height="57" viewBox="0 0 230 57" fill="none" xmlns="http://www.w3.org/2000/svg">
<path d="M32.1526 22.2918C32.1296 22.1314 32.1668 21.9671 32.2559 21.835C32.345 21.703 32.4788 21.6141 32.6278 21.5878C32.7768 21.5615 32.9288 21.6 33.0504 21.6949C33.172 21.7897 33.2532 21.9331 33.2761 22.0935L33.8529 24.454C33.8862 24.6086 33.8621 24.7717 33.7857 24.9085C33.7093 25.0454 33.5867 25.1452 33.4439 25.1866C33.3741 25.2129 33.3001 25.223 33.2268 25.2161C33.1534 25.2093 33.0824 25.1858 33.0184 25.147C32.9544 25.1083 32.8989 25.0553 32.8555 24.9915C32.8121 24.9277 32.7819 24.8546 32.7668 24.777L32.1675 22.415L32.1526 22.2918ZM34.5078 31.6879C34.499 31.5524 34.5343 31.4173 34.6075 31.3059C34.6807 31.1945 34.7873 31.1136 34.9091 31.0771C34.9805 31.0508 35.056 31.0407 35.1309 31.0474C35.2058 31.0541 35.2784 31.0775 35.3441 31.1162C35.4099 31.1548 35.4674 31.2078 35.5129 31.2719C35.5585 31.3359 35.5912 31.4096 35.6088 31.4882L37.4309 38.5511C37.4722 38.7061 37.4545 38.8731 37.3818 39.0153C37.309 39.1575 37.1872 39.2633 37.043 39.3094C36.8962 39.3475 36.7419 39.3236 36.6121 39.2426C36.4822 39.1616 36.3866 39.0297 36.3448 38.874L34.5227 31.8112L34.5078 31.6879ZM38.5948 48.1412C38.5957 48.0046 38.6374 47.8715 38.7138 47.7617C38.7901 47.6519 38.8971 47.5713 39.0187 47.5318C39.1655 47.4937 39.3198 47.5176 39.4496 47.5987C39.5795 47.6797 39.6751 47.8116 39.7168 47.9673L40.2951 50.3034C40.3364 50.4585 40.3188 50.6255 40.246 50.7677C40.1733 50.9099 40.0514 51.0157 39.9072 51.0618C39.7604 51.0999 39.6062 51.076 39.4763 50.995C39.3464 50.914 39.2508 50.7821 39.2091 50.6264L38.6308 48.2902L38.5948 48.1412ZM40.9485 57.5617C40.9403 57.4198 40.9783 57.2789 41.056 57.1632C41.1337 57.0475 41.2462 56.9643 41.374 56.928C41.5177 56.8906 41.6687 56.915 41.7949 56.9961C41.921 57.0771 42.0124 57.2084 42.0495 57.362L43.8716 64.4248C43.9098 64.583 43.8879 64.7515 43.8109 64.8935C43.734 65.0355 43.6081 65.1392 43.4611 65.1818C43.3141 65.2244 43.1579 65.2025 43.027 65.1209C42.8961 65.0392 42.8011 64.9045 42.763 64.7463L40.9409 57.6835L40.9485 57.5617ZM45.0581 74.0164C45.0493 73.8809 45.0846 73.7458 45.1578 73.6344C45.231 73.5229 45.3377 73.442 45.4594 73.4056C45.5308 73.3792 45.6063 73.3691 45.6812 73.3759C45.7561 73.3826 45.8287 73.406 45.8944 73.4446C45.9602 73.4833 46.0177 73.5363 46.0633 73.6003C46.1088 73.6644 46.1415 73.7381 46.1591 73.8167L46.7585 76.1786C46.7773 76.2569 46.7817 76.3386 46.7713 76.419C46.7609 76.4994 46.7359 76.577 46.6978 76.6473C46.6596 76.7176 46.6091 76.7792 46.5491 76.8287C46.4891 76.8782 46.4207 76.9145 46.3479 76.9356C46.2751 76.9567 46.1993 76.9622 46.1249 76.9518C46.0504 76.9413 45.9786 76.9151 45.9138 76.8746C45.849 76.8342 45.7923 76.7803 45.747 76.7161C45.7017 76.6518 45.6687 76.5784 45.6498 76.5002L45.073 74.1396L45.0581 74.0164ZM47.3908 83.4111C47.3916 83.2745 47.4334 83.1414 47.5097 83.0316C47.5861 82.9218 47.693 82.8412 47.8147 82.8017C47.9615 82.7636 48.1157 82.7876 48.2456 82.8686C48.3755 82.9496 48.4711 83.0815 48.5128 83.2372L50.3349 90.3C50.3546 90.3766 50.3595 90.457 50.3494 90.536C50.3392 90.6151 50.3142 90.6912 50.276 90.7598C50.2377 90.8284 50.1869 90.888 50.1267 90.9349C50.0665 90.9818 49.9982 91.0151 49.9259 91.0327C49.8562 91.0589 49.7822 91.069 49.7088 91.0622C49.6355 91.0553 49.5644 91.0318 49.5004 90.9931C49.4364 90.9543 49.3809 90.9013 49.3375 90.8375C49.2941 90.7737 49.264 90.7006 49.2489 90.623L47.4267 83.5601L47.3908 83.4111Z" fill="#B08450"/>
<path d="M51.8602 19.7179C51.8507 19.5586 51.8996 19.4011 51.9963 19.2791C52.093 19.1571 52.2299 19.0804 52.3775 19.0655C52.5253 19.0538 52.671 19.105 52.7832 19.2081C52.8954 19.3113 52.9652 19.4581 52.9776 19.6171L53.1853 22.0767C53.1968 22.155 53.1928 22.2351 53.1734 22.3119C53.1541 22.3887 53.1199 22.4603 53.0732 22.5221C53.0264 22.5839 52.9682 22.6344 52.9022 22.6703C52.8363 22.7063 52.7641 22.7268 52.6906 22.7305C52.6166 22.7435 52.541 22.7399 52.4686 22.7199C52.3963 22.7 52.3286 22.664 52.27 22.6143C52.2114 22.5647 52.163 22.5025 52.128 22.4315C52.0929 22.3605 52.072 22.2823 52.0664 22.2019L51.8586 19.7423L51.8602 19.7179ZM52.7002 29.4099C52.6967 29.2549 52.7481 29.1038 52.8439 28.9871C52.9397 28.8705 53.0727 28.7971 53.216 28.7819C53.3638 28.7702 53.5095 28.8214 53.6217 28.9245C53.7339 29.0276 53.8037 29.1745 53.8161 29.3335L54.4618 36.7136C54.4686 36.7944 54.4606 36.8759 54.4382 36.9536C54.4158 37.0313 54.3795 37.1037 54.3313 37.1665C54.2832 37.2294 54.2241 37.2815 54.1574 37.3199C54.0908 37.3583 54.0179 37.3822 53.943 37.3903C53.868 37.3985 53.7924 37.3906 53.7206 37.3673C53.6487 37.3439 53.582 37.3054 53.5242 37.254C53.4663 37.2027 53.4186 37.1394 53.3836 37.0679C53.3486 36.9964 53.3271 36.9181 53.3203 36.8373L52.6971 29.4587L52.7002 29.4099ZM54.1454 46.4061C54.1376 46.2434 54.1902 46.0834 54.2914 45.9613C54.3927 45.8393 54.5343 45.7651 54.6853 45.7551C54.8363 45.7452 54.9841 45.8003 55.0964 45.9083C55.2087 46.0163 55.2761 46.1684 55.2839 46.3311L55.4916 48.7907C55.4994 48.8716 55.4921 48.9535 55.4701 49.0317C55.4481 49.1098 55.4118 49.1826 55.3635 49.2457C55.3151 49.3087 55.2556 49.3608 55.1885 49.3989C55.1214 49.437 55.048 49.4603 54.9727 49.4674C54.8222 49.4795 54.6737 49.4289 54.5578 49.326C54.442 49.2231 54.3676 49.0757 54.35 48.9144L54.1423 46.4549L54.1454 46.4061ZM54.9839 56.1225C54.9761 55.9598 55.0287 55.7998 55.1299 55.6777C55.2312 55.5556 55.3728 55.4815 55.5238 55.4715C55.6748 55.4616 55.8227 55.5167 55.9349 55.6247C56.0472 55.7327 56.1146 55.8848 56.1224 56.0475L56.7455 63.4262C56.7533 63.5057 56.746 63.5862 56.7238 63.6629C56.7017 63.7395 56.6652 63.8106 56.6167 63.8717C56.5683 63.9329 56.5088 63.9828 56.4419 64.0183C56.3751 64.0539 56.3024 64.0744 56.2282 64.0785C56.156 64.088 56.083 64.0817 56.0134 64.0601C55.9437 64.0386 55.879 64.0022 55.8229 63.953C55.7668 63.9039 55.7205 63.843 55.6868 63.774C55.6531 63.705 55.6326 63.6293 55.6266 63.5513L55.0034 56.1727L54.9839 56.1225ZM56.4743 73.1215C56.4697 73.044 56.4794 72.9662 56.5029 72.8925C56.5264 72.8188 56.5632 72.7507 56.6112 72.6923C56.6592 72.6339 56.7174 72.5862 56.7825 72.552C56.8475 72.5179 56.9181 72.498 56.99 72.4935C57.1346 72.4809 57.2776 72.5286 57.3895 72.6267C57.5015 72.7248 57.5738 72.8658 57.5917 73.0207L57.7994 75.4803C57.8145 75.5604 57.8132 75.6433 57.7955 75.7232C57.7777 75.803 57.744 75.8779 57.6968 75.9426C57.6495 76.0072 57.5897 76.06 57.5217 76.0973C57.4537 76.1346 57.3791 76.1555 57.3031 76.1585C57.228 76.1676 57.1521 76.1605 57.0798 76.1375C57.0075 76.1146 56.9404 76.0762 56.8824 76.0246C56.8243 75.9731 56.7766 75.9095 56.7419 75.8375C56.7072 75.7655 56.6863 75.6866 56.6804 75.6054L56.4727 73.1459L56.4743 73.1215ZM57.3128 82.8379C57.322 82.6912 57.38 82.5526 57.476 82.4474C57.572 82.3423 57.6997 82.2777 57.8356 82.2654C57.9714 82.2531 58.1064 82.2941 58.2156 82.3807C58.3248 82.4674 58.401 82.5939 58.4302 82.7371L59.0533 90.1158C59.0685 90.1959 59.0671 90.2788 59.0494 90.3587C59.0317 90.4386 58.9979 90.5134 58.9507 90.5781C58.9034 90.6427 58.8436 90.6955 58.7756 90.7328C58.7076 90.7701 58.633 90.791 58.557 90.7939C58.4819 90.8031 58.406 90.7961 58.3337 90.7731C58.2615 90.7501 58.1943 90.7117 58.1363 90.6601C58.0783 90.6086 58.0305 90.5449 57.9958 90.4729C57.9611 90.4009 57.9402 90.3221 57.9344 90.2409L57.3113 82.8622L57.3128 82.8379Z" fill="#B08450"/>
<path d="M67.8655 87.3687L68.5297 80.0712C68.5399 79.9096 68.6092 79.7584 68.7223 79.6509C68.8354 79.5433 68.983 79.4882 69.1328 79.4976C69.2825 79.507 69.4221 79.5803 69.5208 79.7012C69.6195 79.8221 69.6692 79.9808 69.659 80.1424L68.9948 87.4399C68.9602 87.576 68.8831 87.6954 68.7767 87.778C68.6702 87.8605 68.5409 87.9012 68.4107 87.893C68.2804 87.8848 68.1573 87.8282 68.062 87.7329C67.9668 87.6376 67.9053 87.5095 67.8881 87.3701L67.8655 87.3687ZM69.1714 72.7723L69.325 70.3355C69.3352 70.1739 69.4045 70.0227 69.5176 69.9152C69.6307 69.8076 69.7783 69.7525 69.9281 69.7619C70.0778 69.7714 70.2174 69.8446 70.3161 69.9655C70.4147 70.0864 70.4645 70.2451 70.4543 70.4067L70.3006 72.8435C70.2927 72.9233 70.2702 73.0008 70.2345 73.0716C70.1988 73.1423 70.1506 73.2049 70.0927 73.2558C70.0347 73.3067 69.9681 73.3449 69.8967 73.3681C69.8253 73.3913 69.7505 73.3992 69.6766 73.3913C69.5388 73.3667 69.4136 73.2918 69.3216 73.1791C69.2297 73.0665 69.1767 72.9229 69.1714 72.7723ZM70.2784 60.6098L70.9427 53.3123C70.9506 53.2324 70.9731 53.1549 71.0087 53.0842C71.0444 53.0134 71.0926 52.9508 71.1506 52.8999C71.2085 52.8491 71.2751 52.8109 71.3465 52.7877C71.4179 52.7644 71.4928 52.7565 71.5667 52.7645C71.7115 52.7912 71.842 52.8734 71.9342 52.9961C72.0265 53.1188 72.0743 53.2736 72.0688 53.4322L71.4046 60.7297C71.3997 60.8108 71.3793 60.8901 71.3446 60.9625C71.3099 61.035 71.2617 61.099 71.203 61.1505C71.1443 61.202 71.0764 61.2399 71.0037 61.2618C70.931 61.2836 70.855 61.289 70.7805 61.2775C70.7065 61.2697 70.6349 61.2462 70.5696 61.2084C70.5043 61.1706 70.4467 61.1193 70.4001 61.0572C70.3534 60.9952 70.3187 60.9238 70.2978 60.847C70.2769 60.7702 70.2703 60.6896 70.2784 60.6098ZM71.6069 46.0148L71.7605 43.578C71.7767 43.4146 71.8509 43.2637 71.9675 43.157C72.0842 43.0503 72.2342 42.9961 72.3861 43.0058C72.5309 43.0326 72.6614 43.1148 72.7537 43.2375C72.8459 43.3601 72.8937 43.515 72.8882 43.6736L72.7346 46.1103C72.7266 46.1902 72.7042 46.2677 72.6685 46.3385C72.6328 46.4092 72.5846 46.4718 72.5266 46.5227C72.4687 46.5736 72.4021 46.6117 72.3307 46.635C72.2593 46.6582 72.1844 46.6661 72.1105 46.6582C72.0373 46.6536 71.966 46.6331 71.9007 46.598C71.8353 46.5629 71.7774 46.5138 71.7303 46.4537C71.6833 46.3936 71.6481 46.3237 71.6269 46.2483C71.6057 46.1729 71.5989 46.0934 71.6069 46.0148ZM72.7139 33.8523L73.3555 26.5534C73.3657 26.3918 73.435 26.2406 73.5481 26.133C73.6612 26.0255 73.8088 25.9703 73.9586 25.9798C74.1083 25.9892 74.2479 26.0625 74.3466 26.1834C74.4452 26.3043 74.495 26.463 74.4848 26.6246L73.8431 33.9235C73.827 34.0869 73.7528 34.2378 73.6361 34.3445C73.5195 34.4512 73.3694 34.5054 73.2175 34.4957C73.0743 34.4747 72.9438 34.3975 72.8509 34.2788C72.758 34.1602 72.7092 34.0083 72.7139 33.8523Z" fill="#B08450"/>
<path d="M76.701 86.776L76.7148 86.5567L78.922 79.6011C78.9691 79.4492 79.0692 79.3228 79.2011 79.2487C79.3329 79.1747 79.4859 79.1591 79.6272 79.2052C79.769 79.2599 79.8853 79.3715 79.9521 79.5169C80.0189 79.6623 80.0311 79.8303 79.9861 79.9862L77.8015 86.9432C77.7498 87.0957 77.6442 87.2203 77.508 87.2897C77.3718 87.3592 77.2161 87.3676 77.0752 87.3133C76.9668 87.2802 76.8717 87.2099 76.8042 87.113C76.7367 87.016 76.7005 86.8977 76.701 86.776ZM81.0702 72.862L81.0841 72.6427L81.8249 70.243C81.8479 70.1682 81.8846 70.0991 81.9328 70.0397C81.9809 69.9803 82.0396 69.9319 82.1052 69.8972C82.1708 69.8626 82.2421 69.8424 82.3149 69.838C82.3876 69.8336 82.4603 69.8449 82.5286 69.8714C82.669 69.9207 82.7853 70.0275 82.8527 70.169C82.9201 70.3104 82.9331 70.4753 82.889 70.6281L82.1482 73.0278C82.1011 73.1797 82.0009 73.3062 81.8691 73.3802C81.7373 73.4542 81.5843 73.4698 81.4429 73.4237C81.3349 73.3825 81.2414 73.3067 81.1748 73.2064C81.1082 73.106 81.0717 72.9859 81.0702 72.862ZM84.7258 61.2761C84.719 61.2028 84.7237 61.1287 84.7396 61.0568L86.9469 54.1013C86.9648 54.0178 86.9988 53.9392 87.0466 53.8705C87.0944 53.8018 87.1549 53.7446 87.2243 53.7025C87.2937 53.6604 87.3703 53.6344 87.4493 53.6263C87.5283 53.6181 87.6078 53.6279 87.6828 53.655C87.7577 53.6821 87.8264 53.726 87.8843 53.7837C87.9423 53.8415 87.9882 53.9118 88.0192 53.9902C88.0501 54.0686 88.0654 54.1532 88.064 54.2387C88.0626 54.3242 88.0445 54.4086 88.011 54.4864L85.8263 61.4434C85.7743 61.5968 85.6697 61.7233 85.5342 61.7967C85.3987 61.8701 85.2428 61.8849 85.0986 61.8378C84.9922 61.7938 84.9004 61.7173 84.8342 61.6176C84.768 61.5178 84.7303 61.3992 84.7258 61.2761ZM89.0951 47.3622L89.1105 47.1185L89.8513 44.7187C89.8743 44.644 89.911 44.5749 89.9592 44.5155C90.0073 44.4561 90.066 44.4077 90.1316 44.373C90.1972 44.3383 90.2685 44.3182 90.3413 44.3138C90.414 44.3093 90.4867 44.3207 90.555 44.3472C90.6263 44.3687 90.6926 44.4058 90.7498 44.4561C90.807 44.5064 90.854 44.569 90.8877 44.6399C90.9215 44.7108 90.9414 44.7885 90.9462 44.8683C90.9509 44.9481 90.9404 45.0283 90.9154 45.1039L90.1746 47.5036C90.1275 47.6555 90.0273 47.782 89.8955 47.856C89.7637 47.93 89.6107 47.9456 89.4694 47.8995C89.3645 47.8601 89.273 47.7881 89.2065 47.6925C89.1399 47.5969 89.1012 47.482 89.0951 47.3622Z" fill="#B08450"/>
<path d="M6.45992 30.2373C6.46009 30.1283 6.48628 30.0209 6.53598 29.9255C6.58568 29.8301 6.65722 29.7498 6.7437 29.6925C6.80733 29.6496 6.87808 29.6206 6.95189 29.6072C7.02571 29.5939 7.10113 29.5963 7.17376 29.6146C7.2464 29.6328 7.31481 29.6664 7.37509 29.7134C7.43536 29.7605 7.48629 29.82 7.52493 29.8885L8.66215 31.9908C8.70135 32.059 8.72758 32.1351 8.73928 32.2145C8.75098 32.294 8.74791 32.3753 8.73031 32.4538C8.71272 32.5323 8.68093 32.6065 8.63674 32.6719C8.59256 32.7374 8.53684 32.7928 8.47287 32.8352C8.40794 32.8768 8.33609 32.9041 8.26151 32.9156C8.18694 32.9271 8.11113 32.9224 8.03853 32.9019C7.96593 32.8814 7.89801 32.8454 7.83871 32.7961C7.77941 32.7468 7.72993 32.6851 7.69317 32.6147L6.55595 30.5125C6.50067 30.4324 6.4674 30.3371 6.45992 30.2373ZM11.0555 38.6248C11.0519 38.5116 11.0764 38.3991 11.1266 38.2991C11.1767 38.199 11.2507 38.1149 11.3408 38.0557C11.4039 38.0145 11.474 37.9875 11.5468 37.9762C11.6196 37.9649 11.6936 37.9697 11.7644 37.9901C11.8351 38.0106 11.9012 38.0464 11.9585 38.0953C12.0159 38.1442 12.0633 38.2052 12.0979 38.2747L15.5337 44.5586C15.5725 44.6248 15.5984 44.6988 15.6099 44.7764C15.6215 44.8539 15.6184 44.9333 15.6009 45.0098C15.5834 45.0863 15.5518 45.1584 15.508 45.2218C15.4642 45.2851 15.4091 45.3384 15.346 45.3785C15.2824 45.4214 15.2116 45.4504 15.1378 45.4638C15.064 45.4772 14.9886 45.4747 14.9159 45.4564C14.8433 45.4382 14.7749 45.4046 14.7146 45.3576C14.6543 45.3106 14.6034 45.2511 14.5647 45.1825L11.129 38.8986C11.0809 38.8169 11.0554 38.722 11.0555 38.6248ZM19.0659 53.2705C19.0612 53.1606 19.0853 53.0512 19.1355 52.9548C19.1857 52.8585 19.2599 52.7791 19.3496 52.7257C19.4133 52.6828 19.4841 52.6538 19.5579 52.6404C19.6317 52.627 19.7071 52.6295 19.7797 52.6478C19.8523 52.666 19.9208 52.6996 19.9811 52.7466C20.0413 52.7936 20.0922 52.8531 20.1309 52.9217L21.2681 55.024C21.3061 55.0936 21.3308 55.1708 21.3407 55.2511C21.3506 55.3315 21.3456 55.4133 21.3259 55.4917C21.3061 55.5702 21.2721 55.6438 21.2259 55.7083C21.1796 55.7727 21.1219 55.8266 21.0562 55.8669C20.9274 55.9435 20.7764 55.9635 20.6352 55.9227C20.494 55.8818 20.3735 55.7833 20.2991 55.6479L19.1393 53.5442C19.0912 53.4626 19.0657 53.3677 19.0659 53.2705ZM23.7066 61.6609C23.703 61.5477 23.7275 61.4352 23.7777 61.3351C23.8279 61.235 23.9018 61.151 23.992 61.0917C24.0569 61.0501 24.1287 61.0227 24.2033 61.0113C24.2779 60.9998 24.3537 61.0045 24.4263 61.025C24.4989 61.0455 24.5668 61.0815 24.6261 61.1308C24.6854 61.1801 24.7349 61.2418 24.7717 61.3122L28.2074 67.596C28.245 67.6637 28.2695 67.739 28.2792 67.8174C28.289 67.8958 28.2839 67.9756 28.2642 68.0521C28.2446 68.1286 28.2108 68.2002 28.1649 68.2625C28.119 68.3248 28.0619 68.3765 27.9971 68.4146C27.9353 68.457 27.8664 68.4856 27.7944 68.4988C27.7223 68.512 27.6487 68.5094 27.5779 68.4913C27.5071 68.4731 27.4406 68.4397 27.3823 68.3931C27.3239 68.3465 27.275 68.2876 27.2385 68.2199L23.8027 61.9361C23.7556 61.8514 23.7231 61.7582 23.7066 61.6609ZM31.7396 76.308C31.7375 76.1752 31.7756 76.0449 31.8482 75.9369C31.9208 75.8288 32.0239 75.7489 32.1418 75.7093C32.2597 75.6697 32.386 75.6725 32.5016 75.7174C32.6171 75.7622 32.7156 75.8466 32.782 75.9578L33.9193 78.0601C33.958 78.1263 33.9839 78.2004 33.9954 78.2779C34.007 78.3554 34.0039 78.4348 33.9864 78.5113C33.9688 78.5879 33.9372 78.6599 33.8935 78.7233C33.8497 78.7866 33.7946 78.8399 33.7315 78.88C33.6678 78.923 33.5971 78.9519 33.5233 78.9653C33.4495 78.9787 33.374 78.9762 33.3014 78.958C33.2288 78.9397 33.1604 78.9061 33.1001 78.8591C33.0398 78.8121 32.9889 78.7526 32.9502 78.684L31.813 76.5817C31.7715 76.55 31.7372 76.5086 31.7128 76.4604C31.6883 76.4123 31.6743 76.3587 31.6718 76.3037L31.7396 76.308ZM36.3141 84.6697C36.312 84.5603 36.3372 84.452 36.3871 84.3561C36.4371 84.2603 36.5099 84.1804 36.5979 84.1249C36.661 84.0837 36.7311 84.0567 36.8039 84.0454C36.8767 84.0341 36.9507 84.0389 37.0214 84.0594C37.0922 84.0798 37.1583 84.1156 37.2156 84.1645C37.273 84.2134 37.3204 84.2745 37.355 84.3439L40.7277 90.5504C40.7664 90.6166 40.7923 90.6907 40.8039 90.7683C40.8154 90.8458 40.8123 90.9252 40.7948 91.0017C40.7773 91.0782 40.7457 91.1503 40.7019 91.2136C40.6581 91.277 40.603 91.3303 40.5399 91.3704C40.4763 91.4133 40.4055 91.4423 40.3317 91.4556C40.2579 91.469 40.1825 91.4665 40.1099 91.4483C40.0372 91.4301 39.9688 91.3965 39.9085 91.3494C39.8482 91.3024 39.7973 91.2429 39.7587 91.1743L36.3229 84.8905C36.2852 84.8211 36.2593 84.7449 36.2464 84.6655L36.3141 84.6697Z" fill="#B08450"/>
<path d="M0.0267739 56.7426C0.020988 56.6587 0.0327964 56.5743 0.0613065 56.4957C0.0898166 56.417 0.134293 56.3461 0.191472 56.2882C0.304055 56.1832 0.449903 56.1297 0.597695 56.139C0.745487 56.1483 0.883453 56.2198 0.981959 56.338L2.57288 58.0775C2.62394 58.1378 2.6631 58.2086 2.68803 58.2859C2.71297 58.3631 2.72318 58.4451 2.71801 58.527C2.71285 58.6089 2.69242 58.689 2.65798 58.7625C2.62354 58.836 2.57579 58.9014 2.51756 58.9547C2.4632 59.0098 2.39905 59.0524 2.32907 59.0799C2.25909 59.1073 2.18476 59.1191 2.11068 59.1144C2.03661 59.1097 1.96434 59.0887 1.89836 59.0527C1.83239 59.0167 1.7741 58.9664 1.72708 58.9049L0.158764 57.1669C0.108274 57.1119 0.070143 57.0451 0.0472786 56.9716C0.0244141 56.8981 0.0173985 56.8198 0.0267739 56.7426ZM6.38893 63.7248C6.3814 63.6408 6.39241 63.5558 6.42103 63.4769C6.44965 63.3979 6.49507 63.3271 6.55363 63.2703C6.61001 63.2147 6.67613 63.1718 6.748 63.1442C6.81987 63.1166 6.89603 63.1048 6.97193 63.1095C7.04782 63.1143 7.1219 63.1356 7.18973 63.172C7.25756 63.2085 7.31773 63.2593 7.36668 63.3216L12.0732 68.5113C12.1707 68.6359 12.2194 68.7968 12.2091 68.9603C12.1988 69.1237 12.1303 69.2772 12.0179 69.3885C11.9615 69.4442 11.8954 69.4871 11.8236 69.5147C11.7517 69.5424 11.6755 69.5541 11.5997 69.5493C11.5238 69.5446 11.4497 69.5233 11.3818 69.4869C11.314 69.4505 11.2538 69.3996 11.2049 69.3373L6.49831 64.1476C6.43968 64.0948 6.39174 64.0296 6.3574 63.9559C6.32307 63.8822 6.30308 63.8017 6.2986 63.7191L6.38893 63.7248ZM17.3883 75.9167C17.3808 75.8327 17.3918 75.7477 17.4204 75.6688C17.4491 75.5898 17.4945 75.519 17.553 75.4623C17.6656 75.3573 17.8115 75.3038 17.9593 75.3131C18.1071 75.3224 18.245 75.3938 18.3435 75.5121L19.9118 77.2502C19.9751 77.3032 20.0271 77.3702 20.0642 77.4469C20.1014 77.5235 20.1228 77.608 20.1272 77.6946C20.1315 77.7813 20.1187 77.8681 20.0895 77.9493C20.0603 78.0305 20.0154 78.1042 19.9579 78.1655C19.9003 78.2268 19.8315 78.2743 19.7558 78.3048C19.6801 78.3353 19.5995 78.3481 19.5192 78.3424C19.4389 78.3366 19.3609 78.3124 19.2903 78.2714C19.2196 78.2305 19.1581 78.1737 19.1097 78.1048L17.5414 76.3668C17.4661 76.3221 17.4036 76.2562 17.3608 76.1759C17.3179 76.0956 17.2962 76.004 17.298 75.911L17.3883 75.9167ZM23.7505 82.8989C23.7453 82.774 23.7758 82.65 23.8379 82.5438C23.9 82.4375 23.9907 82.3541 24.0977 82.3048C24.2047 82.2555 24.3229 82.2426 24.4362 82.2681C24.5496 82.2935 24.6526 82.356 24.7313 82.447L29.4379 87.6367C29.5342 87.7571 29.5824 87.9138 29.5724 88.0733C29.5623 88.2327 29.4947 88.3822 29.3841 88.4895C29.3277 88.5452 29.2616 88.5881 29.1897 88.6157C29.1179 88.6434 29.0417 88.6551 28.9658 88.6503C28.8899 88.6455 28.8159 88.6243 28.748 88.5879C28.6802 88.5514 28.62 88.5005 28.571 88.4383L23.8645 83.2486C23.727 83.1732 23.6217 83.0442 23.5698 82.8875L23.7505 82.8989Z" fill="#B08450"/>
<path d="M113.699 36.9014C113.645 35.4542 113.991 34.0183 114.692 32.7754C115.394 31.5325 116.42 30.5384 117.64 29.9189C118.86 29.2994 120.22 29.0824 121.547 29.2954C122.874 29.5084 124.109 30.1417 125.095 31.1152C126.082 32.0888 126.776 33.3588 127.089 34.7646C127.402 36.1703 127.32 37.6486 126.854 39.0123C126.388 40.376 125.559 41.5639 124.471 42.4257C123.383 43.2874 122.086 43.7842 120.743 43.8532C118.946 43.9455 117.194 43.2654 115.874 41.9621C114.553 40.6587 113.771 38.8387 113.699 36.9014ZM126.121 36.2413C126.074 35.0417 125.698 33.8876 125.041 32.9245C124.383 31.9615 123.475 31.2327 122.429 30.8302C121.383 30.4278 120.247 30.3696 119.164 30.6631C118.081 30.9567 117.1 31.5887 116.345 32.4795C115.59 33.3703 115.095 34.4798 114.921 35.668C114.748 36.8562 114.904 38.0699 115.371 39.1556C115.838 40.2414 116.594 41.1507 117.543 41.7686C118.493 42.3866 119.594 42.6855 120.707 42.6276C122.184 42.5127 123.566 41.7791 124.556 40.5841C125.547 39.389 126.068 37.8276 126.008 36.2341L126.121 36.2413Z" fill="#B08450"/>
<path d="M161.211 32.0931C161.213 31.9695 161.247 31.8486 161.31 31.7444C161.373 31.6402 161.461 31.5568 161.565 31.5039L168.259 28.5498L164.904 21.7084C164.851 21.598 164.827 21.4739 164.835 21.3493C164.843 21.2247 164.882 21.1045 164.949 21.0017C165.032 20.9123 165.137 20.8501 165.251 20.8226C165.365 20.7952 165.484 20.8035 165.593 20.8466L172.207 23.8325L174.353 16.4082C174.386 16.2846 174.455 16.1754 174.55 16.0975C174.645 16.0195 174.761 15.977 174.88 15.9766C174.997 15.9635 175.114 15.9936 175.213 16.062C175.312 16.1304 175.386 16.2331 175.423 16.3533L178.154 23.3757L184.531 19.6922C184.631 19.6211 184.748 19.5866 184.866 19.5941C184.985 19.6015 185.097 19.6505 185.186 19.7335C185.274 19.8184 185.334 19.931 185.359 20.0555C185.383 20.1799 185.371 20.3099 185.324 20.4272L182.605 27.5951L189.47 29.8384C189.575 29.8809 189.667 29.9556 189.734 30.0533C189.801 30.1511 189.84 30.2679 189.847 30.3897C189.853 30.5115 189.827 30.6331 189.772 30.7399C189.716 30.8468 189.633 30.9344 189.533 30.9922L182.839 33.9462L186 40.9956C186.065 41.1018 186.096 41.2283 186.088 41.3559C186.08 41.4835 186.033 41.6051 185.955 41.7022C185.878 41.7926 185.777 41.8558 185.666 41.8837C185.555 41.9116 185.439 41.9029 185.333 41.8587L178.719 38.8729L176.573 46.2972C176.542 46.4172 176.476 46.5238 176.386 46.6016C176.295 46.6795 176.185 46.7245 176.069 46.7302C175.95 46.7369 175.832 46.7043 175.731 46.6367C175.63 46.5692 175.551 46.4699 175.504 46.3521L172.828 39.162L166.451 42.8455C166.35 42.9095 166.233 42.9398 166.117 42.9325C166 42.9251 165.888 42.8804 165.796 42.8042C165.713 42.7164 165.657 42.6028 165.636 42.4788C165.616 42.3548 165.631 42.2266 165.681 42.1119L168.513 34.9511L161.626 32.7065C161.504 32.6671 161.397 32.586 161.323 32.4754C161.248 32.3648 161.209 32.2307 161.211 32.0931ZM169.609 29.0754C169.548 29.2298 169.435 29.3538 169.293 29.4223L163.485 31.9919L169.439 33.933C169.516 33.9524 169.586 33.9911 169.646 34.0458C169.706 34.1006 169.752 34.17 169.782 34.2483C169.81 34.3268 169.821 34.4109 169.816 34.495C169.811 34.5791 169.789 34.6612 169.751 34.7356L167.297 40.9416L172.825 37.7673C172.974 37.7141 173.136 37.7243 173.277 37.7958C173.351 37.8211 173.419 37.8648 173.474 37.9235C173.529 37.9823 173.571 38.0543 173.596 38.1339L175.925 44.3481L177.782 37.9086C177.805 37.8281 177.843 37.7535 177.894 37.6894C177.945 37.6252 178.008 37.5729 178.078 37.5358C178.235 37.486 178.402 37.4965 178.552 37.5657L184.284 40.1535L181.393 34.222C181.365 34.1435 181.354 34.0593 181.359 33.9752C181.365 33.8911 181.387 33.809 181.424 33.7346C181.451 33.656 181.493 33.5844 181.548 33.5246C181.602 33.4647 181.668 33.418 181.741 33.3877L187.526 30.8167L181.572 28.8755C181.425 28.8199 181.303 28.7077 181.229 28.5603C181.199 28.4822 181.187 28.3978 181.192 28.3134C181.198 28.229 181.221 28.1468 181.259 28.073L183.716 21.8426L178.185 25.0412C178.036 25.092 177.875 25.0819 177.734 25.0127C177.656 24.9889 177.585 24.9458 177.525 24.8869C177.466 24.8279 177.421 24.7548 177.392 24.6732L175.086 18.4605L173.206 24.8985C173.187 24.9811 173.151 25.058 173.099 25.1228C173.048 25.1876 172.983 25.2385 172.91 25.2713C172.761 25.3245 172.6 25.3143 172.459 25.2428L166.749 22.6565L169.642 28.5636L169.609 29.0754Z" fill="#B08450"/>
<path d="M123.126 67.1959C123.115 67.0695 123.144 66.9425 123.209 66.8354C123.273 66.7284 123.369 66.6477 123.481 66.6066L125.441 65.7272L124.457 63.708C124.399 63.5994 124.372 63.4742 124.38 63.3484C124.388 63.2225 124.43 63.1017 124.502 63.0013C124.585 62.9119 124.69 62.8497 124.804 62.8222C124.918 62.7948 125.037 62.8031 125.147 62.8462L127.086 63.7269L127.723 61.5408C127.759 61.4191 127.829 61.3122 127.923 61.2348C128.017 61.1574 128.131 61.1135 128.249 61.1092C128.364 61.1104 128.476 61.1463 128.572 61.2129C128.668 61.2795 128.744 61.3742 128.792 61.4859L129.565 63.6141L131.447 62.5341C131.546 62.4629 131.664 62.4284 131.782 62.4359C131.9 62.4433 132.013 62.4923 132.102 62.5754C132.185 62.6583 132.243 62.7665 132.268 62.8859C132.293 63.0053 132.283 63.1303 132.241 63.2447L131.404 65.3692L133.427 66.0106C133.532 66.0559 133.621 66.1326 133.686 66.2316C133.75 66.3307 133.786 66.4478 133.791 66.5692C133.795 66.6905 133.767 66.811 133.71 66.9162C133.653 67.0215 133.569 67.1071 133.468 67.163L131.508 68.0424L132.492 70.0616C132.55 70.1702 132.577 70.2954 132.569 70.4212C132.561 70.5471 132.519 70.6679 132.447 70.7683C132.365 70.859 132.259 70.9202 132.144 70.9436C132.029 70.967 131.91 70.9514 131.804 70.899L129.863 70.0426L129.226 72.2287C129.19 72.3504 129.121 72.4574 129.026 72.5348C128.932 72.6122 128.818 72.6561 128.7 72.6604C128.585 72.6592 128.473 72.6233 128.377 72.5566C128.281 72.49 128.205 72.3954 128.157 72.2837L127.384 70.1554L125.502 71.2355C125.403 71.3067 125.285 71.3411 125.167 71.3337C125.049 71.3262 124.936 71.2772 124.847 71.1942C124.758 71.1158 124.696 71.0075 124.671 70.8863C124.646 70.7652 124.659 70.638 124.708 70.5249L125.545 68.4003L123.523 67.7346C123.41 67.706 123.31 67.6375 123.238 67.5398C123.166 67.4422 123.127 67.3211 123.126 67.1959ZM126.791 66.2527C126.73 66.4071 126.617 66.5311 126.475 66.5997L125.402 67.0702L126.49 67.4324C126.643 67.4872 126.773 67.5995 126.856 67.7491C126.883 67.8318 126.895 67.92 126.889 68.0081C126.884 68.0962 126.861 68.1822 126.823 68.2608L126.366 69.4062L127.401 68.811C127.474 68.7804 127.552 68.7671 127.63 68.772C127.708 68.7769 127.784 68.7999 127.852 68.8394C127.931 68.8692 128.002 68.9172 128.06 68.9801C128.119 69.043 128.164 69.1193 128.192 69.2034L128.618 70.3556L128.966 69.1543C128.985 69.0717 129.022 68.9948 129.073 68.93C129.124 68.8652 129.189 68.8144 129.262 68.7815C129.335 68.751 129.413 68.7377 129.491 68.7426C129.569 68.7475 129.645 68.7705 129.714 68.81L130.772 69.2926L130.25 68.2078C130.223 68.1251 130.211 68.0369 130.217 67.9488C130.222 67.8606 130.245 67.7746 130.283 67.6961C130.344 67.5417 130.457 67.4176 130.599 67.349L131.672 66.8785L130.561 66.5148C130.417 66.4539 130.297 66.343 130.218 66.1997C130.19 66.117 130.179 66.0287 130.184 65.9406C130.19 65.8525 130.213 65.7665 130.251 65.6879L130.708 64.5425L129.673 65.1378C129.527 65.2072 129.362 65.2126 129.213 65.153C129.065 65.0934 128.944 64.9734 128.877 64.8185L128.451 63.6662L128.103 64.8675C128.084 64.9501 128.048 65.027 127.996 65.0918C127.945 65.1566 127.88 65.2075 127.807 65.2403C127.658 65.2911 127.497 65.281 127.356 65.2118L126.298 64.7292L126.819 65.814L126.791 66.2527Z" fill="#B08450"/>
<path d="M158.726 62.5173C157.8 62.5644 156.885 62.3146 156.096 61.7996C155.306 61.2846 154.679 60.5274 154.292 59.6237C153.905 58.72 153.776 57.7104 153.922 56.7224C154.068 55.7344 154.482 54.8124 155.111 54.073C155.741 53.3335 156.558 52.8097 157.458 52.5678C158.359 52.3259 159.304 52.3767 160.173 52.7139C161.042 53.0511 161.797 53.6594 162.341 54.4621C162.886 55.2648 163.196 56.2257 163.232 57.2235C163.275 58.5617 162.825 59.869 161.981 60.8606C161.137 61.8522 159.967 62.4476 158.726 62.5173Z" fill="#B08450"/>
<path d="M211.231 26.3421C210.583 26.3744 209.943 26.1991 209.39 25.8382C208.838 25.4772 208.399 24.947 208.128 24.3143C207.858 23.6816 207.768 22.9748 207.87 22.2831C207.972 21.5915 208.261 20.946 208.702 20.4281C209.142 19.9102 209.714 19.5432 210.344 19.3733C210.975 19.2034 211.636 19.2382 212.245 19.4735C212.853 19.7087 213.382 20.1338 213.764 20.6951C214.146 21.2563 214.364 21.9286 214.391 22.627C214.421 23.5656 214.105 24.4825 213.514 25.1783C212.922 25.874 212.102 26.2923 211.231 26.3421Z" fill="#B08450"/>
<path d="M144.181 11.619C143.642 11.5935 143.132 11.3614 142.741 10.9645C142.351 10.5675 142.105 10.0319 142.05 9.45403C142.03 8.99663 142.138 8.54193 142.359 8.14856C142.58 7.75519 142.905 7.44111 143.292 7.24678C143.678 7.05246 144.108 6.98679 144.527 7.05822C144.947 7.12965 145.335 7.33495 145.643 7.64761C145.95 7.96028 146.163 8.36599 146.254 8.81257C146.345 9.25916 146.31 9.72615 146.152 10.1534C145.995 10.5806 145.723 10.9484 145.372 11.2096C145.021 11.4708 144.606 11.6134 144.181 11.619Z" fill="#B08450"/>
<path d="M101.106 68.3273C100.795 68.342 100.493 68.224 100.265 67.9988C100.038 67.7736 99.9023 67.4596 99.8892 67.1252C99.8784 66.7906 99.9908 66.4638 100.202 66.2159C100.413 65.968 100.705 65.8192 101.016 65.8018C101.326 65.787 101.628 65.9051 101.856 66.1302C102.084 66.3554 102.219 66.6694 102.232 67.0038C102.241 67.1702 102.218 67.3371 102.165 67.4945C102.113 67.6519 102.032 67.7966 101.927 67.9201C101.822 68.0435 101.695 68.1432 101.554 68.2131C101.413 68.2831 101.26 68.3219 101.106 68.3273Z" fill="#B08450"/>
<path d="M87.0037 10.0441C86.4439 10.0735 85.8901 9.92309 85.4127 9.61195C84.9352 9.3008 84.5555 8.84294 84.3217 8.29637C84.0879 7.74981 84.0105 7.13914 84.0993 6.54176C84.1881 5.94438 84.4391 5.38717 84.8206 4.94076C85.202 4.49435 85.6967 4.17886 86.2419 4.0342C86.7871 3.88954 87.3584 3.92229 87.8832 4.12825C88.4081 4.33421 88.8629 4.70412 89.1901 5.19113C89.5173 5.67814 89.7021 6.26029 89.7212 6.86385C89.7466 7.6696 89.4749 8.45649 88.9657 9.05244C88.4565 9.64839 87.7511 10.0049 87.0037 10.0441Z" fill="#B08450"/>
<path d="M180.1 68.758L176.978 70.8118L175.373 74.3314L173.498 70.9838L170.25 69.2623L173.371 67.2328L174.978 63.6889L176.853 67.0364L180.1 68.758Z" fill="#B08450"/>
<path d="M196.94 3.7897L195.214 4.90413L194.319 6.87823L193.279 5.02677L191.481 4.05711L193.208 2.91833L194.102 0.968584L195.141 2.82008L196.94 3.7897Z" fill="#B08450"/>
<path d="M229.301 43.6281L227.481 44.81L226.558 46.8557L225.478 44.9283L223.591 43.9286L225.389 42.7453L226.334 40.701L227.413 42.6528L229.301 43.6281Z" fill="#B08450"/>
<path d="M113.148 11.4725L110.925 12.9226L109.769 15.4429L108.445 13.0598L106.119 11.8366L108.343 10.3622L109.5 7.8419L110.822 10.2494L113.148 11.4725Z" fill="#B08450"/>
</svg>
