<svg width="144" height="82" viewBox="0 0 144 82" fill="none" xmlns="http://www.w3.org/2000/svg">
<path d="M1.94101 81.1674C4.95491 71.9826 8.63013 63.3 12.9597 55.2926C17.2956 47.2966 22.2343 39.9433 27.7026 33.41L29.7802 31.0025L30.8126 29.7883L31.8966 28.6635L34.0691 26.4185C34.801 25.6853 35.4974 24.8793 36.2714 24.2296C37.7914 22.8749 39.2955 21.4806 40.8288 20.1521L45.5448 16.4215C51.9596 11.7672 58.7442 7.99616 65.8107 5.54564C66.6942 5.24449 67.5675 4.86432 68.4612 4.62726L71.1479 3.93276L73.8391 3.2365L76.5526 2.73691C80.1801 2.16006 83.8419 1.92563 87.5012 2.07752C91.1599 2.22064 94.818 2.77204 98.4079 3.81598C101.998 4.84501 105.532 6.31916 108.895 8.36316C112.258 10.3957 115.479 12.9165 118.407 15.9913C121.315 19.0906 123.943 22.7133 126.112 26.8153C130.5 34.9378 133.258 44.8074 133.616 54.8465L133.616 54.8544C133.63 55.2522 133.876 55.5595 134.164 55.5401C134.452 55.5208 134.675 55.1819 134.661 54.7842C134.661 54.771 134.66 54.7561 134.659 54.7438C133.867 44.4395 130.872 34.6647 126.384 26.5344C125.274 24.486 124.042 22.5711 122.763 20.7211C122.094 19.8378 121.457 18.9054 120.746 18.0836L119.699 16.821L118.607 15.6331C115.663 12.5284 112.477 9.85402 109.101 7.73012C105.725 5.60974 102.198 3.93539 98.5861 2.72374C94.972 1.52614 91.284 0.737687 87.57 0.321513C83.8553 -0.0850036 80.1145 -0.0990536 76.3871 0.239857L73.5947 0.563844L70.8182 1.08801L68.0373 1.61394C67.1105 1.79568 66.2041 2.12143 65.2856 2.36902C57.9511 4.42268 50.7648 7.71696 44.0127 12.2966L39.0237 15.9351C37.4088 17.2644 35.8271 18.6727 34.2263 20.0398C31.1137 22.9539 28.0406 25.9768 25.2069 29.4072C19.4872 36.1652 14.3607 43.9066 10.0909 52.4627C5.81545 61.004 2.3509 70.3372 0.0492652 80.1726C-0.122594 80.9075 0.169567 81.6951 0.70233 81.9321C1.19817 82.1525 1.72713 81.8189 1.93655 81.1788L1.94101 81.1674Z" fill="#743335"/>
<path d="M132.645 71.5233C135.358 63.9391 139.711 54.67 144 49.1508L134.067 52.5628L124.851 46.4202C128.23 53.0325 131.117 63.3341 132.645 71.5233Z" fill="#743335"/>
</svg>
